<svg width="18" height="14" viewBox="0 0 18 14" fill="none" xmlns="http://www.w3.org/2000/svg">
<path d="M10.5117 7.73828H12.7617L9 4.01172L5.23828 7.73828H7.48828V10.7617H10.5117V7.73828ZM14.5195 5.52344C15.4805 5.59375 16.3008 5.99219 16.9805 6.71875C17.6602 7.42188 18 8.26562 18 9.25C18 10.2812 17.625 11.1719 16.875 11.9219C16.1484 12.6484 15.2695 13.0117 14.2383 13.0117H4.5C3.25781 13.0117 2.19141 12.5781 1.30078 11.7109C0.433594 10.8203 0 9.75391 0 8.51172C0 7.36328 0.386719 6.36719 1.16016 5.52344C1.93359 4.65625 2.88281 4.16406 4.00781 4.04688C4.5 3.13281 5.19141 2.39453 6.08203 1.83203C6.97266 1.26953 7.94531 0.988281 9 0.988281C10.3594 0.988281 11.5547 1.42187 12.5859 2.28906C13.6172 3.13281 14.2617 4.21094 14.5195 5.52344Z" fill="#55595B"/>
</svg>
